<svg width="2585" height="2585" viewBox="0 0 2585 2585" fill="none" xmlns="http://www.w3.org/2000/svg">
<g filter="url(#filter0_d_48_2)">
<path d="M1292.19 2336.56C1868.87 2336.56 2336.37 1869.02 2336.37 1292.28C2336.37 715.541 1868.87 248 1292.19 248C715.498 248 248 715.541 248 1292.28C248 1869.02 715.498 2336.56 1292.19 2336.56Z" fill="url(#paint0_radial_48_2)"/>
</g>
<path d="M486.677 1956.78L547 2022.5L612.095 2084.65C612.095 2084.65 671.497 2104.49 683.1 2081.28C694.702 2058.08 729.508 2058.08 729.508 2058.08H752.712C752.712 2058.08 810.722 2023.27 857.131 1953.65C903.539 1884.03 938.345 1942.05 984.753 1918.84C1031.16 1895.63 1007.96 1779.6 1089.17 1744.79C1170.39 1709.98 1170.39 1651.97 1135.58 1640.36C1100.77 1628.76 1062.37 1538.95 1023.5 1554.85C984.753 1570.75 752.712 1211.05 706.304 1199.45C659.895 1187.84 671.497 1141.43 636.691 1164.64C601.885 1187.84 625.089 1211.05 601.885 1199.45C578.681 1187.84 636.691 1141.43 636.691 1141.43C636.691 1141.43 613.487 1129.83 590.283 1153.03C567.079 1176.24 520.671 1187.84 509.069 1176.24C497.466 1164.64 497.466 1141.43 474.262 1141.43C451.058 1141.43 416.252 1141.43 416.252 1129.83C416.252 1118.22 462.66 1037 451.058 1025.4C439.456 1013.8 381.446 1013.8 381.446 1013.8C381.446 1013.8 404.65 967.383 416.252 967.383C427.854 967.383 462.66 909.367 439.456 909.367C416.252 909.367 323.435 967.383 311.833 955.78C300.231 944.177 300.231 1002.19 300.231 1002.19C300.231 1002.19 288.629 1048.6 323.435 1048.6C358.242 1048.6 381.446 1083.41 369.844 1095.02C358.242 1106.62 369.844 1106.62 381.446 1118.22C393.048 1129.83 381.446 1153.03 416.252 1164.64C451.058 1176.24 462.66 1153.03 474.262 1164.64C485.864 1176.24 509.069 1245.86 427.854 1280.67C346.64 1315.48 381.446 1303.87 381.446 1327.08C381.446 1350.29 346.64 1350.29 358.242 1385.1C369.844 1419.9 404.65 1466.32 416.252 1524.33C427.854 1582.35 497.466 1628.76 509.069 1663.57C520.671 1698.38 485.864 1733.19 497.466 1756.4C509.069 1779.6 497.466 1802.81 497.466 1826.01C497.466 1849.22 499.091 1948.31 486.677 1956.78Z" fill="#00A451"/>
<path d="M648.289 1002.2C648.289 1002.2 590.278 978.991 590.278 955.785C590.278 932.579 578.676 944.182 613.482 955.785C648.289 967.388 683.095 1002.2 648.289 1002.2Z" fill="#00A451" stroke="#00A451" stroke-width="6.813" stroke-miterlimit="10"/>
<path d="M382.501 781C379.002 790.5 410.446 787.537 445.252 775.934C480.058 764.331 468.456 775.934 491.66 787.537C514.865 799.14 538.069 764.331 549.671 775.934C561.273 787.537 584.477 799.14 596.079 799.14C607.681 799.14 607.681 833.949 596.079 868.759C584.477 903.568 630.885 891.965 630.885 868.759C630.885 845.552 665.691 775.934 700.498 775.934C735.304 775.934 793.314 764.331 804.916 741.124C816.518 717.918 816.518 694.712 839.723 694.712C862.927 694.712 886.131 671.506 909.335 671.506C932.539 671.506 955.743 683.109 967.345 671.506C978.947 659.902 1036.96 636.696 1048.56 636.696C1060.16 636.696 1071.76 648.299 1071.76 659.902C1071.76 671.506 1141.38 671.506 1152.98 659.902C1164.58 648.299 1129.77 636.696 1118.17 625.093C1106.57 613.49 1141.38 590.284 1152.98 590.284C1164.58 590.284 1129.77 567.077 1118.17 567.077C1106.57 567.077 1141.38 543.871 1152.98 555.474C1164.58 567.077 1269 578.681 1269 590.284C1269 601.887 1222.59 625.093 1222.59 636.696C1222.59 648.299 1280.6 671.506 1292.2 659.902C1303.81 648.299 1303.81 625.093 1292.2 625.093C1280.6 625.093 1292.2 601.887 1292.2 601.887L1280.6 590.284L1338.61 567.077C1338.61 567.077 1327.01 532.268 1280.6 532.268C1234.19 532.268 1338.61 439.443 1303.81 427.84C1269 416.237 1234.19 439.443 1222.59 427.84C1210.99 416.237 1280.6 346.618 1187.78 346.618C1094.97 346.618 1106.57 393.031 1106.57 404.634C1106.57 416.237 990.55 497.459 978.947 485.856C967.345 474.252 990.55 439.443 978.947 416.237C967.345 393.031 944.141 393.031 932.539 381.427C920.937 369.824 926.622 313.781 926.622 313.781L836.01 352.652C799.463 371.217 759.552 394.075 717.901 422.038C683.095 445.477 652.233 469.031 625.084 491.657C603.621 507.089 580.863 530.562 556.499 554C526.999 579.5 516.5 596.5 498.5 615.5C480.5 634.5 386.001 771.5 382.501 781Z" fill="#00A451"/>
<path d="M1577 291C1577 291 1599.6 317.62 1587.99 329.223C1576.39 340.827 1587.99 364.033 1587.99 364.033C1587.99 364.033 1611.2 375.636 1587.99 387.239C1564.79 398.842 1541.59 387.239 1529.98 433.652C1518.38 480.064 1529.98 538.08 1564.79 538.08C1599.6 538.08 1617 509.072 1628.6 497.469C1640.2 485.866 1686.61 474.262 1698.21 485.866C1709.82 497.469 1779.43 520.675 1791.03 509.072C1802.63 497.469 1849.04 509.072 1872.24 520.675C1895.45 532.278 1930.25 543.881 1930.25 532.278C1930.25 521.835 1956.59 515.105 1976.66 520.675C1990.24 524.388 2004.3 535.428 2005 534.5C2005.58 533.804 1994.57 524.873 1989 520C1970.5 502 1950.88 486.932 1931.5 471.5C1900 447 1870 427 1837 405.5C1777.5 370.5 1717.5 339.868 1640.5 311.5C1621.5 304.5 1598.23 296.802 1577 291Z" fill="#00A451" stroke="#00A451" stroke-width="6.813" stroke-miterlimit="10"/>
<path d="M1814.28 2191.51C1837.37 2131.64 1858.02 2083.95 1872.29 2052.28C1889.69 2013.52 1987.15 1946.22 1941.9 1878.23C1918.7 1843.42 1930.3 1785.4 1953.51 1773.8C1976.71 1762.2 1953.51 1715.79 1930.3 1715.79C1907.1 1715.79 1907.1 1680.98 1907.1 1669.37C1907.1 1657.77 1849.09 1669.37 1814.28 1669.37C1779.47 1669.37 1779.47 1646.17 1744.67 1646.17C1709.86 1646.17 1628.65 1646.17 1640.25 1564.94C1651.85 1483.72 1814.28 1193.64 1872.29 1170.44C1930.3 1147.23 1953.51 1135.63 1965.11 1135.63C1976.71 1135.63 1976.71 1170.44 2034.72 1158.84C2092.73 1147.23 2127.54 1147.23 2150.74 1170.44C2173.94 1193.64 2220.35 1147.23 2220.35 1182.04C2220.35 1216.85 2173.94 1240.06 2197.15 1251.66C2220.35 1263.26 2266.76 1274.87 2266.76 1274.87L2289.97 1321.28L2331.5 1341.5C2328 1406 2322.15 1436.5 2321 1445.5C2318 1469 2313.33 1485.29 2309.5 1508.5C2303 1536 2297.27 1560.96 2289.5 1588L2275 1633.5L2258.5 1678L2242 1717.5L2224 1754C2208 1785.5 2186.41 1826 2161.5 1864C2134.12 1905.77 2090.5 1959 2082.5 1968C2074.5 1977 2014 2047 1964.5 2084.5C1910.5 2130.5 1861.5 2164 1814.28 2191.51Z" fill="#00A451" stroke="#00A451" stroke-width="6.813" stroke-miterlimit="10"/>
<rect x="513" y="838" width="1558" height="869" rx="434.5" fill="white"/>
<circle cx="888.386" cy="1181.39" r="123.386" fill="#17152D"/>
<circle cx="1696.57" cy="1181.39" r="123.386" fill="#17152D"/>
<path d="M1447.69 1330.48H1132.03C1132.03 1385.66 1164.32 1494.17 1293.46 1486.77C1422.61 1479.36 1450.09 1379.49 1447.69 1330.48Z" fill="#1E1E1E" stroke="black" stroke-width="2.2731"/>
<path d="M1019 1868V1707H1180L1019 1868Z" fill="white"/>
<defs>
<filter id="filter0_d_48_2" x="0" y="0" width="2584.37" height="2584.56" filterUnits="userSpaceOnUse" color-interpolation-filters="sRGB">
<feFlood flood-opacity="0" result="BackgroundImageFix"/>
<feColorMatrix in="SourceAlpha" type="matrix" values="0 0 0 0 0 0 0 0 0 0 0 0 0 0 0 0 0 0 127 0" result="hardAlpha"/>
<feOffset/>
<feGaussianBlur stdDeviation="124"/>
<feComposite in2="hardAlpha" operator="out"/>
<feColorMatrix type="matrix" values="0 0 0 0 0 0 0 0 0 0 0 0 0 0 0 0 0 0 0.58 0"/>
<feBlend mode="normal" in2="BackgroundImageFix" result="effect1_dropShadow_48_2"/>
<feBlend mode="normal" in="SourceGraphic" in2="effect1_dropShadow_48_2" result="shape"/>
</filter>
<radialGradient id="paint0_radial_48_2" cx="0" cy="0" r="1" gradientUnits="userSpaceOnUse" gradientTransform="translate(1292.19 1292.28) rotate(90) scale(1044.28 1044.19)">
<stop offset="0.265068" stop-color="#258152"/>
<stop offset="0.831872" stop-color="#273746"/>
</radialGradient>
</defs>
</svg>
